<svg width="712" height="173" viewBox="0 0 712 173" fill="none" xmlns="http://www.w3.org/2000/svg">
<rect x="0.5" y="10.5" width="711" height="94" fill="white" fill-opacity="0.02"/>
<rect x="0.5" y="10.5" width="711" height="94" stroke="#ABB2BF"/>
<path d="M41.352 53.44L39.06 70H35.808L34.176 57.748L32.484 70H29.16L27.048 53.44H29.736L31.044 67.312L32.796 55.36H35.664L37.32 67.312L38.868 53.44H41.352ZM50.4506 57.328V68.032H53.8946V70H43.9706V68.032H47.7626V59.296H44.0906V57.328H50.4506ZM48.5786 51.124C49.1066 51.124 49.5306 51.284 49.8506 51.604C50.1786 51.924 50.3426 52.324 50.3426 52.804C50.3426 53.284 50.1786 53.688 49.8506 54.016C49.5306 54.344 49.1066 54.508 48.5786 54.508C48.0666 54.508 47.6466 54.344 47.3186 54.016C46.9906 53.688 46.8266 53.284 46.8266 52.804C46.8266 52.324 46.9906 51.924 47.3186 51.604C47.6466 51.284 48.0666 51.124 48.5786 51.124ZM68.5013 69.328C68.0373 69.624 67.4813 69.864 66.8333 70.048C66.1853 70.232 65.5093 70.324 64.8053 70.324C63.3333 70.324 62.2133 69.944 61.4453 69.184C60.6853 68.416 60.3053 67.408 60.3053 66.16V59.284H57.4853V57.328H60.3053V54.496L62.9933 54.172V57.328H67.2653L66.9653 59.284H62.9933V66.136C62.9933 66.816 63.1613 67.324 63.4973 67.66C63.8413 67.988 64.4013 68.152 65.1773 68.152C65.6413 68.152 66.0693 68.096 66.4613 67.984C66.8533 67.872 67.2093 67.728 67.5293 67.552L68.5013 69.328ZM74.9959 51.976V58.876C75.5079 58.252 76.1079 57.784 76.7959 57.472C77.4839 57.152 78.1919 56.992 78.9199 56.992C80.1119 56.992 80.9999 57.324 81.5839 57.988C82.1679 58.644 82.4599 59.568 82.4599 60.76V70H79.7719V61.18C79.7719 60.42 79.6279 59.876 79.3399 59.548C79.0519 59.212 78.5879 59.044 77.9479 59.044C77.5479 59.044 77.1639 59.136 76.7959 59.32C76.4359 59.496 76.0999 59.728 75.7879 60.016C75.4839 60.304 75.2199 60.612 74.9959 60.94V70H72.3079V52.264L74.9959 51.976ZM111.757 55.72L112.477 57.952C111.973 58.12 111.417 58.232 110.809 58.288C110.209 58.344 109.537 58.372 108.793 58.372C109.553 58.708 110.125 59.14 110.509 59.668C110.893 60.188 111.085 60.828 111.085 61.588C111.085 62.412 110.885 63.148 110.485 63.796C110.085 64.444 109.513 64.952 108.769 65.32C108.025 65.688 107.133 65.872 106.093 65.872C105.725 65.872 105.405 65.856 105.133 65.824C104.869 65.792 104.609 65.74 104.353 65.668C104.193 65.78 104.057 65.932 103.945 66.124C103.841 66.308 103.789 66.504 103.789 66.712C103.789 66.968 103.893 67.192 104.101 67.384C104.317 67.568 104.741 67.66 105.373 67.66H107.581C108.485 67.66 109.281 67.816 109.969 68.128C110.665 68.432 111.209 68.852 111.601 69.388C112.001 69.916 112.201 70.516 112.201 71.188C112.201 72.452 111.657 73.432 110.569 74.128C109.481 74.824 107.913 75.172 105.865 75.172C104.417 75.172 103.281 75.024 102.457 74.728C101.633 74.432 101.053 73.992 100.717 73.408C100.381 72.824 100.213 72.108 100.213 71.26H102.625C102.625 71.7 102.709 72.064 102.877 72.352C103.053 72.64 103.377 72.856 103.849 73C104.321 73.144 105.001 73.216 105.889 73.216C106.777 73.216 107.481 73.14 108.001 72.988C108.529 72.844 108.909 72.632 109.141 72.352C109.381 72.08 109.501 71.752 109.501 71.368C109.501 70.856 109.277 70.46 108.829 70.18C108.381 69.9 107.781 69.76 107.029 69.76H104.857C103.657 69.76 102.777 69.516 102.217 69.028C101.665 68.54 101.389 67.972 101.389 67.324C101.389 66.892 101.509 66.476 101.749 66.076C101.997 65.676 102.349 65.328 102.805 65.032C102.045 64.632 101.489 64.148 101.137 63.58C100.793 63.004 100.621 62.308 100.621 61.492C100.621 60.596 100.845 59.812 101.293 59.14C101.741 58.468 102.361 57.944 103.153 57.568C103.953 57.192 104.873 57.004 105.913 57.004C106.929 57.004 107.777 56.952 108.457 56.848C109.137 56.736 109.729 56.58 110.233 56.38C110.745 56.18 111.253 55.96 111.757 55.72ZM105.937 58.852C105.081 58.852 104.437 59.096 104.005 59.584C103.573 60.064 103.357 60.692 103.357 61.468C103.357 62.268 103.577 62.912 104.017 63.4C104.465 63.88 105.117 64.12 105.973 64.12C106.765 64.12 107.369 63.888 107.785 63.424C108.209 62.96 108.421 62.3 108.421 61.444C108.421 60.58 108.213 59.932 107.797 59.5C107.381 59.068 106.761 58.852 105.937 58.852ZM115.6 70V68.08H117.46V59.236H115.6V57.328H119.512L120.004 60.268C120.476 59.204 121.06 58.396 121.756 57.844C122.46 57.284 123.364 57.004 124.468 57.004C124.844 57.004 125.18 57.036 125.476 57.1C125.78 57.156 126.08 57.232 126.376 57.328L125.572 59.632C125.316 59.56 125.076 59.508 124.852 59.476C124.628 59.436 124.38 59.416 124.108 59.416C123.188 59.416 122.392 59.76 121.72 60.448C121.056 61.136 120.532 62.112 120.148 63.376V68.08H122.704V70H115.6ZM124 61.996V58.876L124.336 57.328H126.376L125.92 61.996H124ZM132.102 64.528C132.158 65.392 132.342 66.1 132.654 66.652C132.966 67.196 133.374 67.596 133.878 67.852C134.39 68.108 134.95 68.236 135.558 68.236C136.182 68.236 136.758 68.14 137.286 67.948C137.814 67.756 138.346 67.484 138.882 67.132L140.046 68.74C139.454 69.22 138.762 69.604 137.97 69.892C137.178 70.18 136.33 70.324 135.426 70.324C134.114 70.324 133.002 70.044 132.09 69.484C131.186 68.924 130.498 68.144 130.026 67.144C129.554 66.144 129.318 64.988 129.318 63.676C129.318 62.404 129.55 61.268 130.014 60.268C130.478 59.26 131.142 58.464 132.006 57.88C132.87 57.288 133.902 56.992 135.102 56.992C136.23 56.992 137.198 57.248 138.006 57.76C138.822 58.272 139.45 59 139.89 59.944C140.338 60.88 140.562 62.008 140.562 63.328C140.562 63.544 140.554 63.76 140.538 63.976C140.53 64.184 140.518 64.368 140.502 64.528H132.102ZM135.126 58.984C134.286 58.984 133.59 59.284 133.038 59.884C132.494 60.484 132.178 61.42 132.09 62.692H137.958C137.934 61.5 137.678 60.584 137.19 59.944C136.71 59.304 136.022 58.984 135.126 58.984ZM153.945 66.892C153.945 67.388 154.021 67.752 154.173 67.984C154.325 68.208 154.569 68.376 154.905 68.488L154.305 70.312C153.681 70.24 153.145 70.068 152.697 69.796C152.249 69.524 151.909 69.112 151.677 68.56C151.213 69.144 150.625 69.584 149.913 69.88C149.201 70.176 148.441 70.324 147.633 70.324C146.353 70.324 145.337 69.964 144.585 69.244C143.841 68.516 143.469 67.564 143.469 66.388C143.469 65.052 143.989 64.024 145.029 63.304C146.069 62.584 147.557 62.224 149.493 62.224H151.305V61.396C151.305 60.58 151.057 59.992 150.561 59.632C150.073 59.272 149.381 59.092 148.485 59.092C148.069 59.092 147.565 59.148 146.973 59.26C146.381 59.364 145.761 59.528 145.113 59.752L144.453 57.856C145.245 57.56 146.021 57.344 146.781 57.208C147.541 57.064 148.245 56.992 148.893 56.992C150.589 56.992 151.853 57.368 152.685 58.12C153.525 58.872 153.945 59.912 153.945 61.24V66.892ZM148.449 68.344C148.993 68.344 149.525 68.2 150.045 67.912C150.565 67.624 150.985 67.22 151.305 66.7V63.904H149.817C148.553 63.904 147.649 64.116 147.105 64.54C146.561 64.956 146.289 65.532 146.289 66.268C146.289 66.94 146.469 67.456 146.829 67.816C147.197 68.168 147.737 68.344 148.449 68.344ZM169.236 69.328C168.772 69.624 168.216 69.864 167.568 70.048C166.92 70.232 166.244 70.324 165.54 70.324C164.068 70.324 162.948 69.944 162.18 69.184C161.42 68.416 161.04 67.408 161.04 66.16V59.284H158.22V57.328H161.04V54.496L163.728 54.172V57.328H168L167.7 59.284H163.728V66.136C163.728 66.816 163.896 67.324 164.232 67.66C164.576 67.988 165.136 68.152 165.912 68.152C166.376 68.152 166.804 68.096 167.196 67.984C167.588 67.872 167.944 67.728 168.264 67.552L169.236 69.328ZM193.613 56.992C194.733 56.992 195.629 57.268 196.301 57.82C196.973 58.364 197.461 59.136 197.765 60.136C198.069 61.128 198.221 62.296 198.221 63.64C198.221 64.928 198.037 66.076 197.669 67.084C197.301 68.092 196.753 68.884 196.025 69.46C195.305 70.036 194.409 70.324 193.337 70.324C192.009 70.324 190.937 69.856 190.121 68.92V74.872L187.433 75.172V57.328H189.773L189.941 58.96C190.421 58.304 190.977 57.812 191.609 57.484C192.249 57.156 192.917 56.992 193.613 56.992ZM192.869 59.068C192.269 59.068 191.741 59.248 191.285 59.608C190.829 59.968 190.441 60.392 190.121 60.88V66.808C190.425 67.264 190.785 67.616 191.201 67.864C191.625 68.104 192.101 68.224 192.629 68.224C193.533 68.224 194.221 67.86 194.693 67.132C195.165 66.404 195.401 65.244 195.401 63.652C195.401 62.572 195.305 61.696 195.113 61.024C194.929 60.344 194.649 59.848 194.273 59.536C193.905 59.224 193.437 59.068 192.869 59.068ZM206.9 56.992C208.14 56.992 209.184 57.268 210.032 57.82C210.88 58.372 211.52 59.144 211.952 60.136C212.392 61.128 212.612 62.296 212.612 63.64C212.612 64.976 212.388 66.148 211.94 67.156C211.5 68.156 210.852 68.936 209.996 69.496C209.148 70.048 208.112 70.324 206.888 70.324C205.664 70.324 204.624 70.056 203.768 69.52C202.92 68.976 202.272 68.204 201.824 67.204C201.384 66.204 201.164 65.024 201.164 63.664C201.164 62.344 201.384 61.184 201.824 60.184C202.272 59.184 202.924 58.404 203.78 57.844C204.636 57.276 205.676 56.992 206.9 56.992ZM206.9 59.08C205.932 59.08 205.204 59.452 204.716 60.196C204.228 60.932 203.984 62.088 203.984 63.664C203.984 65.232 204.224 66.388 204.704 67.132C205.192 67.876 205.92 68.248 206.888 68.248C207.856 68.248 208.58 67.876 209.06 67.132C209.548 66.388 209.792 65.224 209.792 63.64C209.792 62.08 209.552 60.932 209.072 60.196C208.592 59.452 207.868 59.08 206.9 59.08ZM226.126 70H222.766L221.338 61L219.802 70H216.514L214.366 57.328H216.958L218.278 68.332L220.042 58.936H222.73L224.374 68.332L225.694 57.328H228.19L226.126 70ZM232.837 64.528C232.893 65.392 233.077 66.1 233.389 66.652C233.701 67.196 234.109 67.596 234.613 67.852C235.125 68.108 235.685 68.236 236.293 68.236C236.917 68.236 237.493 68.14 238.021 67.948C238.549 67.756 239.081 67.484 239.617 67.132L240.781 68.74C240.189 69.22 239.497 69.604 238.705 69.892C237.913 70.18 237.065 70.324 236.161 70.324C234.849 70.324 233.737 70.044 232.825 69.484C231.921 68.924 231.233 68.144 230.761 67.144C230.289 66.144 230.053 64.988 230.053 63.676C230.053 62.404 230.285 61.268 230.749 60.268C231.213 59.26 231.877 58.464 232.741 57.88C233.605 57.288 234.637 56.992 235.837 56.992C236.965 56.992 237.933 57.248 238.741 57.76C239.557 58.272 240.185 59 240.625 59.944C241.073 60.88 241.297 62.008 241.297 63.328C241.297 63.544 241.289 63.76 241.273 63.976C241.265 64.184 241.253 64.368 241.237 64.528H232.837ZM235.861 58.984C235.021 58.984 234.325 59.284 233.773 59.884C233.229 60.484 232.913 61.42 232.825 62.692H238.693C238.669 61.5 238.413 60.584 237.925 59.944C237.445 59.304 236.757 58.984 235.861 58.984ZM245.115 70V68.08H246.975V59.236H245.115V57.328H249.027L249.519 60.268C249.991 59.204 250.575 58.396 251.271 57.844C251.975 57.284 252.879 57.004 253.983 57.004C254.359 57.004 254.695 57.036 254.991 57.1C255.295 57.156 255.595 57.232 255.891 57.328L255.087 59.632C254.831 59.56 254.591 59.508 254.367 59.476C254.143 59.436 253.895 59.416 253.623 59.416C252.703 59.416 251.907 59.76 251.235 60.448C250.571 61.136 250.047 62.112 249.663 63.376V68.08H252.219V70H245.115ZM253.515 61.996V58.876L253.851 57.328H255.891L255.435 61.996H253.515ZM279.885 68.116C280.477 68.116 281.029 68.016 281.541 67.816C282.053 67.608 282.541 67.34 283.005 67.012L284.253 68.74C283.701 69.212 283.029 69.596 282.237 69.892C281.453 70.18 280.641 70.324 279.801 70.324C278.505 70.324 277.397 70.052 276.477 69.508C275.557 68.956 274.853 68.184 274.365 67.192C273.877 66.2 273.633 65.044 273.633 63.724C273.633 62.436 273.877 61.288 274.365 60.28C274.861 59.264 275.573 58.464 276.501 57.88C277.429 57.288 278.545 56.992 279.849 56.992C280.713 56.992 281.509 57.12 282.237 57.376C282.965 57.632 283.633 58.012 284.241 58.516L283.005 60.208C282.509 59.864 282.001 59.604 281.481 59.428C280.969 59.244 280.441 59.152 279.897 59.152C278.897 59.152 278.077 59.52 277.437 60.256C276.805 60.992 276.489 62.148 276.489 63.724C276.489 64.78 276.633 65.632 276.921 66.28C277.217 66.92 277.621 67.388 278.133 67.684C278.645 67.972 279.229 68.116 279.885 68.116ZM293.243 56.992C294.483 56.992 295.527 57.268 296.375 57.82C297.223 58.372 297.863 59.144 298.295 60.136C298.735 61.128 298.955 62.296 298.955 63.64C298.955 64.976 298.731 66.148 298.283 67.156C297.843 68.156 297.195 68.936 296.339 69.496C295.491 70.048 294.455 70.324 293.231 70.324C292.007 70.324 290.967 70.056 290.111 69.52C289.263 68.976 288.615 68.204 288.167 67.204C287.727 66.204 287.507 65.024 287.507 63.664C287.507 62.344 287.727 61.184 288.167 60.184C288.615 59.184 289.267 58.404 290.123 57.844C290.979 57.276 292.019 56.992 293.243 56.992ZM293.243 59.08C292.275 59.08 291.547 59.452 291.059 60.196C290.571 60.932 290.327 62.088 290.327 63.664C290.327 65.232 290.567 66.388 291.047 67.132C291.535 67.876 292.263 68.248 293.231 68.248C294.199 68.248 294.923 67.876 295.403 67.132C295.891 66.388 296.135 65.224 296.135 63.64C296.135 62.08 295.895 60.932 295.415 60.196C294.935 59.452 294.211 59.08 293.243 59.08ZM311.294 56.992C311.774 56.992 312.206 57.096 312.59 57.304C312.974 57.512 313.274 57.876 313.49 58.396C313.714 58.916 313.826 59.644 313.826 60.58V70H311.438V60.952C311.438 60.288 311.39 59.812 311.294 59.524C311.206 59.236 310.97 59.092 310.586 59.092C310.282 59.092 309.974 59.188 309.662 59.38C309.35 59.564 309.034 59.884 308.714 60.34V70H306.542V60.952C306.542 60.288 306.494 59.812 306.398 59.524C306.31 59.236 306.074 59.092 305.69 59.092C305.378 59.092 305.066 59.188 304.754 59.38C304.45 59.564 304.138 59.884 303.818 60.34V70H301.418V57.328H303.446L303.626 58.696C303.986 58.192 304.378 57.784 304.802 57.472C305.226 57.152 305.738 56.992 306.338 56.992C306.818 56.992 307.254 57.112 307.646 57.352C308.038 57.592 308.326 58.012 308.51 58.612C308.862 58.132 309.262 57.744 309.71 57.448C310.158 57.144 310.686 56.992 311.294 56.992ZM319.181 64.528C319.237 65.392 319.421 66.1 319.733 66.652C320.045 67.196 320.453 67.596 320.957 67.852C321.469 68.108 322.029 68.236 322.637 68.236C323.261 68.236 323.837 68.14 324.365 67.948C324.893 67.756 325.425 67.484 325.961 67.132L327.125 68.74C326.533 69.22 325.841 69.604 325.049 69.892C324.257 70.18 323.409 70.324 322.505 70.324C321.193 70.324 320.081 70.044 319.169 69.484C318.265 68.924 317.577 68.144 317.105 67.144C316.633 66.144 316.396 64.988 316.396 63.676C316.396 62.404 316.629 61.268 317.093 60.268C317.557 59.26 318.221 58.464 319.085 57.88C319.949 57.288 320.981 56.992 322.181 56.992C323.309 56.992 324.277 57.248 325.085 57.76C325.901 58.272 326.529 59 326.969 59.944C327.417 60.88 327.641 62.008 327.641 63.328C327.641 63.544 327.633 63.76 327.617 63.976C327.609 64.184 327.597 64.368 327.581 64.528H319.181ZM322.205 58.984C321.365 58.984 320.669 59.284 320.117 59.884C319.573 60.484 319.257 61.42 319.169 62.692H325.037C325.013 61.5 324.757 60.584 324.269 59.944C323.789 59.304 323.101 58.984 322.205 58.984ZM335.947 68.26C336.787 68.26 337.455 68.112 337.951 67.816C338.447 67.512 338.695 67.096 338.695 66.568C338.695 66.224 338.623 65.932 338.479 65.692C338.335 65.444 338.047 65.22 337.615 65.02C337.183 64.812 336.527 64.596 335.647 64.372C334.815 64.156 334.083 63.9 333.451 63.604C332.827 63.308 332.343 62.924 331.999 62.452C331.655 61.98 331.483 61.372 331.483 60.628C331.483 59.9 331.687 59.264 332.095 58.72C332.503 58.176 333.087 57.752 333.847 57.448C334.615 57.144 335.515 56.992 336.547 56.992C337.611 56.992 338.539 57.132 339.331 57.412C340.123 57.692 340.799 58.04 341.359 58.456L340.231 60.148C339.735 59.82 339.191 59.552 338.599 59.344C338.015 59.136 337.355 59.032 336.619 59.032C335.763 59.032 335.147 59.16 334.771 59.416C334.403 59.672 334.219 60.012 334.219 60.436C334.219 60.748 334.311 61.012 334.495 61.228C334.687 61.436 335.015 61.632 335.479 61.816C335.943 61.992 336.599 62.2 337.447 62.44C338.271 62.664 338.987 62.928 339.595 63.232C340.211 63.536 340.687 63.94 341.023 64.444C341.367 64.94 341.539 65.588 341.539 66.388C341.539 67.3 341.275 68.048 340.747 68.632C340.227 69.208 339.539 69.636 338.683 69.916C337.835 70.188 336.923 70.324 335.947 70.324C334.771 70.324 333.755 70.156 332.899 69.82C332.043 69.476 331.323 69.048 330.739 68.536L332.167 66.904C332.663 67.304 333.231 67.632 333.871 67.888C334.511 68.136 335.203 68.26 335.947 68.26ZM370.788 55.72L371.508 57.952C371.004 58.12 370.448 58.232 369.84 58.288C369.24 58.344 368.568 58.372 367.824 58.372C368.584 58.708 369.156 59.14 369.54 59.668C369.924 60.188 370.116 60.828 370.116 61.588C370.116 62.412 369.916 63.148 369.516 63.796C369.116 64.444 368.544 64.952 367.8 65.32C367.056 65.688 366.164 65.872 365.124 65.872C364.756 65.872 364.436 65.856 364.164 65.824C363.9 65.792 363.64 65.74 363.384 65.668C363.224 65.78 363.088 65.932 362.976 66.124C362.872 66.308 362.82 66.504 362.82 66.712C362.82 66.968 362.924 67.192 363.132 67.384C363.348 67.568 363.772 67.66 364.404 67.66H366.612C367.516 67.66 368.312 67.816 369 68.128C369.696 68.432 370.24 68.852 370.632 69.388C371.032 69.916 371.232 70.516 371.232 71.188C371.232 72.452 370.688 73.432 369.6 74.128C368.512 74.824 366.944 75.172 364.896 75.172C363.448 75.172 362.312 75.024 361.488 74.728C360.664 74.432 360.084 73.992 359.748 73.408C359.412 72.824 359.244 72.108 359.244 71.26H361.656C361.656 71.7 361.74 72.064 361.908 72.352C362.084 72.64 362.408 72.856 362.88 73C363.352 73.144 364.032 73.216 364.92 73.216C365.808 73.216 366.512 73.14 367.032 72.988C367.56 72.844 367.94 72.632 368.172 72.352C368.412 72.08 368.532 71.752 368.532 71.368C368.532 70.856 368.308 70.46 367.86 70.18C367.412 69.9 366.812 69.76 366.06 69.76H363.888C362.688 69.76 361.808 69.516 361.248 69.028C360.696 68.54 360.42 67.972 360.42 67.324C360.42 66.892 360.54 66.476 360.78 66.076C361.028 65.676 361.38 65.328 361.836 65.032C361.076 64.632 360.52 64.148 360.168 63.58C359.824 63.004 359.652 62.308 359.652 61.492C359.652 60.596 359.876 59.812 360.324 59.14C360.772 58.468 361.392 57.944 362.184 57.568C362.984 57.192 363.904 57.004 364.944 57.004C365.96 57.004 366.808 56.952 367.488 56.848C368.168 56.736 368.76 56.58 369.264 56.38C369.776 56.18 370.284 55.96 370.788 55.72ZM364.968 58.852C364.112 58.852 363.468 59.096 363.036 59.584C362.604 60.064 362.388 60.692 362.388 61.468C362.388 62.268 362.608 62.912 363.048 63.4C363.496 63.88 364.148 64.12 365.004 64.12C365.796 64.12 366.4 63.888 366.816 63.424C367.24 62.96 367.452 62.3 367.452 61.444C367.452 60.58 367.244 59.932 366.828 59.5C366.412 59.068 365.792 58.852 364.968 58.852ZM374.631 70V68.08H376.491V59.236H374.631V57.328H378.543L379.035 60.268C379.507 59.204 380.091 58.396 380.787 57.844C381.491 57.284 382.395 57.004 383.499 57.004C383.875 57.004 384.211 57.036 384.507 57.1C384.811 57.156 385.111 57.232 385.407 57.328L384.603 59.632C384.347 59.56 384.107 59.508 383.883 59.476C383.659 59.436 383.411 59.416 383.139 59.416C382.219 59.416 381.423 59.76 380.751 60.448C380.087 61.136 379.563 62.112 379.179 63.376V68.08H381.735V70H374.631ZM383.031 61.996V58.876L383.367 57.328H385.407L384.951 61.996H383.031ZM391.134 64.528C391.19 65.392 391.374 66.1 391.686 66.652C391.998 67.196 392.406 67.596 392.91 67.852C393.422 68.108 393.982 68.236 394.59 68.236C395.214 68.236 395.79 68.14 396.318 67.948C396.846 67.756 397.378 67.484 397.914 67.132L399.078 68.74C398.486 69.22 397.794 69.604 397.002 69.892C396.21 70.18 395.362 70.324 394.458 70.324C393.146 70.324 392.034 70.044 391.122 69.484C390.218 68.924 389.53 68.144 389.058 67.144C388.586 66.144 388.35 64.988 388.35 63.676C388.35 62.404 388.582 61.268 389.046 60.268C389.51 59.26 390.174 58.464 391.038 57.88C391.902 57.288 392.934 56.992 394.134 56.992C395.262 56.992 396.23 57.248 397.038 57.76C397.854 58.272 398.482 59 398.922 59.944C399.37 60.88 399.594 62.008 399.594 63.328C399.594 63.544 399.586 63.76 399.57 63.976C399.562 64.184 399.55 64.368 399.534 64.528H391.134ZM394.158 58.984C393.318 58.984 392.622 59.284 392.07 59.884C391.526 60.484 391.21 61.42 391.122 62.692H396.99C396.966 61.5 396.71 60.584 396.222 59.944C395.742 59.304 395.054 58.984 394.158 58.984ZM412.976 66.892C412.976 67.388 413.052 67.752 413.204 67.984C413.356 68.208 413.6 68.376 413.936 68.488L413.336 70.312C412.712 70.24 412.176 70.068 411.728 69.796C411.28 69.524 410.94 69.112 410.708 68.56C410.244 69.144 409.656 69.584 408.944 69.88C408.232 70.176 407.472 70.324 406.664 70.324C405.384 70.324 404.368 69.964 403.616 69.244C402.872 68.516 402.5 67.564 402.5 66.388C402.5 65.052 403.02 64.024 404.06 63.304C405.1 62.584 406.588 62.224 408.524 62.224H410.336V61.396C410.336 60.58 410.088 59.992 409.592 59.632C409.104 59.272 408.412 59.092 407.516 59.092C407.1 59.092 406.596 59.148 406.004 59.26C405.412 59.364 404.792 59.528 404.144 59.752L403.484 57.856C404.276 57.56 405.052 57.344 405.812 57.208C406.572 57.064 407.276 56.992 407.924 56.992C409.62 56.992 410.884 57.368 411.716 58.12C412.556 58.872 412.976 59.912 412.976 61.24V66.892ZM407.48 68.344C408.024 68.344 408.556 68.2 409.076 67.912C409.596 67.624 410.016 67.22 410.336 66.7V63.904H408.848C407.584 63.904 406.68 64.116 406.136 64.54C405.592 64.956 405.32 65.532 405.32 66.268C405.32 66.94 405.5 67.456 405.86 67.816C406.228 68.168 406.768 68.344 407.48 68.344ZM428.267 69.328C427.803 69.624 427.247 69.864 426.599 70.048C425.951 70.232 425.275 70.324 424.571 70.324C423.099 70.324 421.979 69.944 421.211 69.184C420.451 68.416 420.071 67.408 420.071 66.16V59.284H417.251V57.328H420.071V54.496L422.759 54.172V57.328H427.031L426.731 59.284H422.759V66.136C422.759 66.816 422.927 67.324 423.263 67.66C423.607 67.988 424.167 68.152 424.943 68.152C425.407 68.152 425.835 68.096 426.227 67.984C426.619 67.872 426.975 67.728 427.295 67.552L428.267 69.328ZM448.696 64.528C448.752 65.392 448.936 66.1 449.248 66.652C449.56 67.196 449.968 67.596 450.472 67.852C450.984 68.108 451.544 68.236 452.152 68.236C452.776 68.236 453.352 68.14 453.88 67.948C454.408 67.756 454.94 67.484 455.476 67.132L456.64 68.74C456.048 69.22 455.356 69.604 454.564 69.892C453.772 70.18 452.924 70.324 452.02 70.324C450.708 70.324 449.596 70.044 448.684 69.484C447.78 68.924 447.092 68.144 446.62 67.144C446.148 66.144 445.912 64.988 445.912 63.676C445.912 62.404 446.144 61.268 446.608 60.268C447.072 59.26 447.736 58.464 448.6 57.88C449.464 57.288 450.496 56.992 451.696 56.992C452.824 56.992 453.792 57.248 454.6 57.76C455.416 58.272 456.044 59 456.484 59.944C456.932 60.88 457.156 62.008 457.156 63.328C457.156 63.544 457.148 63.76 457.132 63.976C457.124 64.184 457.112 64.368 457.096 64.528H448.696ZM451.72 58.984C450.88 58.984 450.184 59.284 449.632 59.884C449.088 60.484 448.772 61.42 448.684 62.692H454.552C454.528 61.5 454.272 60.584 453.784 59.944C453.304 59.304 452.616 58.984 451.72 58.984ZM466.423 52.24V66.544C466.423 67.128 466.599 67.544 466.951 67.792C467.311 68.032 467.775 68.152 468.343 68.152C468.711 68.152 469.059 68.112 469.387 68.032C469.715 67.952 470.035 67.852 470.347 67.732L471.031 69.604C470.655 69.796 470.191 69.964 469.639 70.108C469.095 70.252 468.471 70.324 467.767 70.324C466.495 70.324 465.503 69.968 464.791 69.256C464.087 68.536 463.735 67.552 463.735 66.304V54.22H459.907V52.24H466.423ZM477.477 64.528C477.533 65.392 477.717 66.1 478.029 66.652C478.341 67.196 478.749 67.596 479.253 67.852C479.765 68.108 480.325 68.236 480.933 68.236C481.557 68.236 482.133 68.14 482.661 67.948C483.189 67.756 483.721 67.484 484.257 67.132L485.421 68.74C484.829 69.22 484.137 69.604 483.345 69.892C482.553 70.18 481.705 70.324 480.801 70.324C479.489 70.324 478.377 70.044 477.465 69.484C476.561 68.924 475.873 68.144 475.401 67.144C474.929 66.144 474.693 64.988 474.693 63.676C474.693 62.404 474.925 61.268 475.389 60.268C475.853 59.26 476.517 58.464 477.381 57.88C478.245 57.288 479.277 56.992 480.477 56.992C481.605 56.992 482.573 57.248 483.381 57.76C484.197 58.272 484.825 59 485.265 59.944C485.713 60.88 485.937 62.008 485.937 63.328C485.937 63.544 485.929 63.76 485.913 63.976C485.905 64.184 485.893 64.368 485.877 64.528H477.477ZM480.501 58.984C479.661 58.984 478.965 59.284 478.413 59.884C477.869 60.484 477.553 61.42 477.465 62.692H483.333C483.309 61.5 483.053 60.584 482.565 59.944C482.085 59.304 481.397 58.984 480.501 58.984ZM495.744 68.116C496.336 68.116 496.888 68.016 497.4 67.816C497.912 67.608 498.4 67.34 498.864 67.012L500.112 68.74C499.56 69.212 498.888 69.596 498.096 69.892C497.312 70.18 496.5 70.324 495.66 70.324C494.364 70.324 493.256 70.052 492.336 69.508C491.416 68.956 490.712 68.184 490.224 67.192C489.736 66.2 489.492 65.044 489.492 63.724C489.492 62.436 489.736 61.288 490.224 60.28C490.72 59.264 491.432 58.464 492.36 57.88C493.288 57.288 494.404 56.992 495.708 56.992C496.572 56.992 497.368 57.12 498.096 57.376C498.824 57.632 499.492 58.012 500.1 58.516L498.864 60.208C498.368 59.864 497.86 59.604 497.34 59.428C496.828 59.244 496.3 59.152 495.756 59.152C494.756 59.152 493.936 59.52 493.296 60.256C492.664 60.992 492.348 62.148 492.348 63.724C492.348 64.78 492.492 65.632 492.78 66.28C493.076 66.92 493.48 67.388 493.992 67.684C494.504 67.972 495.088 68.116 495.744 68.116ZM514.611 69.328C514.147 69.624 513.591 69.864 512.943 70.048C512.295 70.232 511.619 70.324 510.915 70.324C509.443 70.324 508.323 69.944 507.555 69.184C506.795 68.416 506.415 67.408 506.415 66.16V59.284H503.595V57.328H506.415V54.496L509.103 54.172V57.328H513.375L513.075 59.284H509.103V66.136C509.103 66.816 509.271 67.324 509.607 67.66C509.951 67.988 510.511 68.152 511.287 68.152C511.751 68.152 512.179 68.096 512.571 67.984C512.963 67.872 513.319 67.728 513.639 67.552L514.611 69.328ZM518.537 70V68.08H520.397V59.236H518.537V57.328H522.449L522.941 60.268C523.413 59.204 523.997 58.396 524.693 57.844C525.397 57.284 526.301 57.004 527.405 57.004C527.781 57.004 528.117 57.036 528.413 57.1C528.717 57.156 529.017 57.232 529.313 57.328L528.509 59.632C528.253 59.56 528.013 59.508 527.789 59.476C527.565 59.436 527.317 59.416 527.045 59.416C526.125 59.416 525.329 59.76 524.657 60.448C523.993 61.136 523.469 62.112 523.085 63.376V68.08H525.641V70H518.537ZM526.937 61.996V58.876L527.273 57.328H529.313L528.857 61.996H526.937ZM539.732 57.328V68.032H543.176V70H533.252V68.032H537.044V59.296H533.372V57.328H539.732ZM537.86 51.124C538.388 51.124 538.812 51.284 539.132 51.604C539.46 51.924 539.624 52.324 539.624 52.804C539.624 53.284 539.46 53.688 539.132 54.016C538.812 54.344 538.388 54.508 537.86 54.508C537.348 54.508 536.928 54.344 536.6 54.016C536.272 53.688 536.108 53.284 536.108 52.804C536.108 52.324 536.272 51.924 536.6 51.604C536.928 51.284 537.348 51.124 537.86 51.124ZM553.307 68.116C553.899 68.116 554.451 68.016 554.963 67.816C555.475 67.608 555.963 67.34 556.427 67.012L557.674 68.74C557.123 69.212 556.451 69.596 555.659 69.892C554.875 70.18 554.063 70.324 553.223 70.324C551.927 70.324 550.819 70.052 549.899 69.508C548.979 68.956 548.275 68.184 547.787 67.192C547.299 66.2 547.055 65.044 547.055 63.724C547.055 62.436 547.299 61.288 547.787 60.28C548.283 59.264 548.995 58.464 549.923 57.88C550.851 57.288 551.967 56.992 553.271 56.992C554.135 56.992 554.931 57.12 555.659 57.376C556.387 57.632 557.055 58.012 557.663 58.516L556.427 60.208C555.931 59.864 555.423 59.604 554.903 59.428C554.391 59.244 553.863 59.152 553.319 59.152C552.319 59.152 551.499 59.52 550.859 60.256C550.227 60.992 549.911 62.148 549.911 63.724C549.911 64.78 550.055 65.632 550.343 66.28C550.639 66.92 551.043 67.388 551.555 67.684C552.067 67.972 552.651 68.116 553.307 68.116ZM568.513 57.328V68.032H571.957V70H562.033V68.032H565.825V59.296H562.153V57.328H568.513ZM566.641 51.124C567.169 51.124 567.593 51.284 567.913 51.604C568.241 51.924 568.405 52.324 568.405 52.804C568.405 53.284 568.241 53.688 567.913 54.016C567.593 54.344 567.169 54.508 566.641 54.508C566.129 54.508 565.709 54.344 565.381 54.016C565.053 53.688 564.889 53.284 564.889 52.804C564.889 52.324 565.053 51.924 565.381 51.604C565.709 51.284 566.129 51.124 566.641 51.124ZM586.564 69.328C586.1 69.624 585.544 69.864 584.896 70.048C584.248 70.232 583.572 70.324 582.868 70.324C581.396 70.324 580.276 69.944 579.508 69.184C578.748 68.416 578.368 67.408 578.368 66.16V59.284H575.548V57.328H578.368V54.496L581.056 54.172V57.328H585.328L585.028 59.284H581.056V66.136C581.056 66.816 581.224 67.324 581.56 67.66C581.904 67.988 582.464 68.152 583.24 68.152C583.704 68.152 584.132 68.096 584.524 67.984C584.916 67.872 585.272 67.728 585.592 67.552L586.564 69.328ZM601.458 57.328L597.09 70.048C596.762 71.008 596.342 71.852 595.83 72.58C595.318 73.316 594.662 73.908 593.862 74.356C593.062 74.804 592.07 75.08 590.886 75.184L590.538 73.168C591.394 73.032 592.074 72.832 592.578 72.568C593.09 72.312 593.494 71.972 593.79 71.548C594.094 71.124 594.362 70.608 594.594 70H593.682L589.41 57.328H592.266L595.458 68.128L598.698 57.328H601.458ZM621.84 58.84C622.28 58.264 622.792 57.812 623.376 57.484C623.968 57.156 624.616 56.992 625.32 56.992C626.432 56.992 627.332 57.268 628.02 57.82C628.716 58.364 629.224 59.136 629.544 60.136C629.872 61.128 630.036 62.296 630.036 63.64C630.036 64.928 629.844 66.076 629.46 67.084C629.076 68.092 628.508 68.884 627.756 69.46C627.012 70.036 626.092 70.324 624.996 70.324C623.58 70.324 622.468 69.8 621.66 68.752L621.516 70H619.152V52.24L621.84 51.94V58.84ZM624.324 68.272C625.236 68.272 625.94 67.9 626.436 67.156C626.94 66.412 627.192 65.244 627.192 63.652C627.192 62.572 627.092 61.696 626.892 61.024C626.692 60.344 626.396 59.848 626.004 59.536C625.62 59.224 625.148 59.068 624.588 59.068C623.988 59.068 623.46 59.248 623.004 59.608C622.548 59.968 622.16 60.392 621.84 60.88V66.808C622.136 67.264 622.492 67.624 622.908 67.888C623.332 68.144 623.804 68.272 624.324 68.272ZM640.466 57.328V68.032H643.91V70H633.986V68.032H637.778V59.296H634.106V57.328H640.466ZM638.594 51.124C639.122 51.124 639.546 51.284 639.866 51.604C640.194 51.924 640.358 52.324 640.358 52.804C640.358 53.284 640.194 53.688 639.866 54.016C639.546 54.344 639.122 54.508 638.594 54.508C638.082 54.508 637.662 54.344 637.334 54.016C637.006 53.688 636.842 53.284 636.842 52.804C636.842 52.324 637.006 51.924 637.334 51.604C637.662 51.284 638.082 51.124 638.594 51.124ZM653.501 52.24V66.544C653.501 67.128 653.677 67.544 654.029 67.792C654.389 68.032 654.853 68.152 655.421 68.152C655.789 68.152 656.137 68.112 656.465 68.032C656.793 67.952 657.113 67.852 657.425 67.732L658.109 69.604C657.733 69.796 657.269 69.964 656.717 70.108C656.173 70.252 655.549 70.324 654.845 70.324C653.573 70.324 652.581 69.968 651.869 69.256C651.165 68.536 650.813 67.552 650.813 66.304V54.22H646.985V52.24H653.501ZM667.892 52.24V66.544C667.892 67.128 668.068 67.544 668.42 67.792C668.78 68.032 669.244 68.152 669.812 68.152C670.18 68.152 670.528 68.112 670.856 68.032C671.184 67.952 671.504 67.852 671.816 67.732L672.5 69.604C672.124 69.796 671.66 69.964 671.108 70.108C670.564 70.252 669.94 70.324 669.236 70.324C667.964 70.324 666.972 69.968 666.26 69.256C665.556 68.536 665.204 67.552 665.204 66.304V54.22H661.376V52.24H667.892Z" fill="white"/>
<rect width="41.472" height="28.704" transform="translate(6)" fill="white" fill-opacity="0.02"/>
<path d="M24.56 19.616C24.56 21.0453 24.0373 22.2507 22.992 23.232C21.968 24.2133 20.72 24.704 19.248 24.704C17.7333 24.704 16.4747 24.2133 15.472 23.232C14.4907 22.2507 14 21.0453 14 19.616C14 18.9333 14.096 18.208 14.288 17.44C14.48 16.672 14.864 15.68 15.44 14.464L20.4 4H25.2L22.544 15.584C23.1413 16.0107 23.6213 16.576 23.984 17.28C24.368 17.9627 24.56 18.7413 24.56 19.616ZM38.8 19.616C38.8 21.0453 38.2773 22.2507 37.232 23.232C36.1867 24.2133 34.9387 24.704 33.488 24.704C32.016 24.704 30.768 24.2133 29.744 23.232C28.7413 22.2507 28.24 21.0453 28.24 19.616C28.24 18.9333 28.336 18.208 28.528 17.44C28.72 16.672 29.1147 15.68 29.712 14.464L34.704 4H39.472L36.784 15.584C37.4027 16.0107 37.8933 16.576 38.256 17.28C38.6187 17.9627 38.8 18.7413 38.8 19.616Z" fill="#ABB2BF"/>
<rect x="543.5" y="108.5" width="163" height="64" stroke="#ABB2BF"/>
<path d="M562.388 142.364V140.612H572.012V142.364H562.388ZM599.821 140.66C599.821 139.22 599.669 138.068 599.365 137.204C599.061 136.34 598.661 135.692 598.165 135.26C597.669 134.828 597.125 134.54 596.533 134.396C595.949 134.252 595.373 134.18 594.805 134.18H592.861V147.332H594.829C595.421 147.332 596.009 147.24 596.593 147.056C597.185 146.864 597.725 146.528 598.213 146.048C598.701 145.56 599.089 144.884 599.377 144.02C599.673 143.148 599.821 142.028 599.821 140.66ZM602.041 140.66C602.041 142.036 601.893 143.212 601.597 144.188C601.309 145.156 600.913 145.956 600.409 146.588C599.905 147.22 599.329 147.712 598.681 148.064C598.041 148.408 597.365 148.652 596.653 148.796C595.949 148.932 595.257 149 594.577 149H590.785V132.476H594.313C595.281 132.476 596.221 132.584 597.133 132.8C598.053 133.016 598.881 133.416 599.617 134C600.361 134.576 600.949 135.4 601.381 136.472C601.821 137.544 602.041 138.94 602.041 140.66ZM605.704 149V147.452H607.672V137.912H605.704V136.364H609.208L609.58 139.352C610.068 138.312 610.66 137.508 611.356 136.94C612.052 136.372 612.972 136.088 614.116 136.088C614.468 136.088 614.78 136.116 615.052 136.172C615.332 136.22 615.616 136.284 615.904 136.364L615.316 138.164C615.052 138.092 614.812 138.04 614.596 138.008C614.38 137.968 614.132 137.948 613.852 137.948C612.884 137.948 612.052 138.292 611.356 138.98C610.66 139.668 610.104 140.708 609.688 142.1V147.452H612.256V149H605.704ZM613.96 140.636V137.888L614.164 136.364H615.904L615.616 140.636H613.96ZM622.639 147.152C622.639 146.76 622.731 146.408 622.915 146.096C623.099 145.776 623.347 145.524 623.659 145.34C623.979 145.148 624.339 145.052 624.739 145.052C625.147 145.052 625.511 145.148 625.831 145.34C626.151 145.524 626.403 145.776 626.587 146.096C626.771 146.408 626.863 146.76 626.863 147.152C626.863 147.544 626.771 147.904 626.587 148.232C626.403 148.552 626.151 148.808 625.831 149C625.511 149.184 625.147 149.276 624.739 149.276C624.339 149.276 623.979 149.184 623.659 149C623.347 148.808 623.099 148.552 622.915 148.232C622.731 147.904 622.639 147.544 622.639 147.152ZM660.636 132.476L658.116 149H655.38L653.484 136.532L651.576 149H648.78L646.452 132.476H648.54L650.304 146.708L652.284 134.396H654.84L656.724 146.708L658.704 132.476H660.636ZM665.162 131.084V138.092C665.658 137.428 666.266 136.932 666.986 136.604C667.714 136.268 668.45 136.1 669.194 136.1C670.426 136.1 671.326 136.428 671.894 137.084C672.462 137.74 672.746 138.652 672.746 139.82V149H670.73V139.868C670.73 139.108 670.554 138.556 670.202 138.212C669.85 137.86 669.298 137.684 668.546 137.684C668.066 137.684 667.61 137.792 667.178 138.008C666.746 138.224 666.358 138.492 666.014 138.812C665.67 139.132 665.386 139.46 665.162 139.796V149H663.146V131.3L665.162 131.084ZM682.349 136.1C683.541 136.1 684.537 136.372 685.337 136.916C686.145 137.452 686.749 138.212 687.149 139.196C687.557 140.18 687.761 141.34 687.761 142.676C687.761 143.964 687.553 145.104 687.137 146.096C686.721 147.088 686.109 147.868 685.301 148.436C684.501 148.996 683.509 149.276 682.325 149.276C681.141 149.276 680.145 149.004 679.337 148.46C678.529 147.916 677.917 147.152 677.501 146.168C677.093 145.176 676.889 144.02 676.889 142.7C676.889 141.396 677.097 140.248 677.513 139.256C677.929 138.264 678.541 137.492 679.349 136.94C680.165 136.38 681.165 136.1 682.349 136.1ZM682.349 137.744C681.261 137.744 680.437 138.148 679.877 138.956C679.325 139.756 679.049 141.004 679.049 142.7C679.049 144.364 679.321 145.6 679.865 146.408C680.417 147.216 681.237 147.62 682.325 147.62C683.413 147.62 684.229 147.216 684.773 146.408C685.325 145.6 685.601 144.356 685.601 142.676C685.601 140.996 685.329 139.756 684.785 138.956C684.241 138.148 683.429 137.744 682.349 137.744Z" fill="white"/>
<path d="M667.56 113.616C667.56 115.045 667.037 116.251 665.992 117.232C664.968 118.213 663.72 118.704 662.248 118.704C660.733 118.704 659.475 118.213 658.472 117.232C657.491 116.251 657 115.045 657 113.616C657 112.933 657.096 112.208 657.288 111.44C657.48 110.672 657.864 109.68 658.44 108.464L663.4 98H668.2L665.544 109.584C666.141 110.011 666.621 110.576 666.984 111.28C667.368 111.963 667.56 112.741 667.56 113.616ZM681.8 113.616C681.8 115.045 681.277 116.251 680.232 117.232C679.187 118.213 677.939 118.704 676.488 118.704C675.016 118.704 673.768 118.213 672.744 117.232C671.741 116.251 671.24 115.045 671.24 113.616C671.24 112.933 671.336 112.208 671.528 111.44C671.72 110.672 672.115 109.68 672.712 108.464L677.704 98H682.472L679.784 109.584C680.403 110.011 680.893 110.576 681.256 111.28C681.619 111.963 681.8 112.741 681.8 113.616Z" fill="#ABB2BF"/>
</svg>
